# This file uses centimeters as units for non-parametric coordinates.

g default
v -12.196431 0.000000 1.155760
v 12.029991 0.000000 1.155760
v -12.196431 4.665105 1.155760
v 12.029991 4.665105 1.155760
v -12.196431 4.665105 -1.111034
v 12.029991 4.665105 -1.111034
v -12.196431 0.000000 -1.111034
v 12.029991 0.000000 -1.111034
v 12.029991 4.665105 0.577610
v -12.196431 4.665105 0.577610
v -12.196431 0.000000 0.577610
v 12.029991 0.000000 0.577610
v 12.029991 4.665105 -0.654977
v -12.196431 4.665105 -0.654977
v -12.196431 0.000000 -0.654977
v 12.029991 0.000000 -0.654977
v -10.258108 4.665105 1.155760
v -10.258109 4.665105 0.577610
v -10.258109 4.665105 -0.654977
v -10.258108 4.665105 -1.111034
v -10.258108 0.000000 -1.111034
v -10.258108 0.000000 -0.654977
v -10.258108 0.000000 0.577610
v -10.258108 0.000000 1.155760
v 9.812591 4.665105 1.155760
v 9.812590 4.665105 0.577610
v 9.812590 4.665105 -0.654977
v 9.812591 4.665105 -1.111034
v 9.812591 0.000000 -1.111034
v 9.812591 0.000000 -0.654977
v 9.812591 0.000000 0.577610
v 9.812591 0.000000 1.155760
v 7.716838 4.665105 1.155760
v 7.716837 4.665105 0.577610
v 7.716837 4.665105 -0.654977
v 7.716838 4.665105 -1.111034
v 7.716838 0.000000 -1.111034
v 7.716838 0.000000 -0.654977
v 7.716838 0.000000 0.577610
v 7.716838 0.000000 1.155760
v 5.423935 4.665105 1.155760
v 5.423935 4.665105 0.577610
v 5.423935 4.665105 -0.654977
v 5.423935 4.665105 -1.111034
v 5.423935 0.000000 -1.111034
v 5.423935 0.000000 -0.654977
v 5.423935 0.000000 0.577610
v 5.423935 0.000000 1.155760
v 2.425400 4.665105 1.155760
v 2.425400 4.665105 0.577610
v 2.425400 4.665105 -0.654977
v 2.425400 4.665105 -1.111034
v 2.425400 0.000000 -1.111034
v 2.425400 0.000000 -0.654977
v 2.425400 0.000000 0.577610
v 2.425400 0.000000 1.155760
v 0.027639 4.665105 1.155760
v 0.027638 4.665105 0.577610
v 0.027638 4.665105 -0.654977
v 0.027639 4.665105 -1.111034
v 0.027639 0.000000 -1.111034
v 0.027639 0.000000 -0.654977
v 0.027639 0.000000 0.577610
v 0.027639 0.000000 1.155760
v -1.875255 4.665105 1.155760
v -1.875256 4.665105 0.577610
v -1.875256 4.665105 -0.654977
v -1.875255 4.665105 -1.111034
v -1.875255 0.000000 -1.111034
v -1.875255 0.000000 -0.654977
v -1.875255 0.000000 0.577610
v -1.875255 0.000000 1.155760
v -4.033185 4.665105 1.155760
v -4.033186 4.665105 0.577610
v -4.033186 4.665105 -0.654977
v -4.033185 4.665105 -1.111034
v -4.033185 0.000000 -1.111034
v -4.033185 0.000000 -0.654977
v -4.033185 0.000000 0.577610
v -4.033185 0.000000 1.155760
v -6.372024 4.665105 1.155760
v -6.372025 4.665105 0.577610
v -6.372025 4.665105 -0.654977
v -6.372024 4.665105 -1.111034
v -6.372024 0.000000 -1.111034
v -6.372024 0.000000 -0.654977
v -6.372024 0.000000 0.577610
v -6.372024 0.000000 1.155760
v -8.414399 4.665105 1.155760
v -8.414401 4.665105 0.577610
v -8.414401 4.665105 -0.654977
v -8.414399 4.665105 -1.111034
v -8.414399 0.000000 -1.111034
v -8.414399 0.000000 -0.654977
v -8.414399 0.000000 0.577610
v -8.414399 0.000000 1.155760
v -12.196431 6.071387 1.155760
v -10.258108 6.071387 1.155760
v -10.258109 6.071387 0.577610
v -12.196431 6.071387 0.577610
v -10.258109 6.071387 -0.654977
v -12.196431 6.071387 -0.654977
v -10.258108 6.071387 -1.111034
v -12.196431 6.071387 -1.111034
v 9.812591 6.071387 1.155760
v 12.029991 6.071387 1.155760
v 12.029991 6.071387 0.577611
v 9.812590 6.071387 0.577611
v 9.812590 6.071387 -0.654977
v 9.812591 6.071387 -1.111034
v 12.029991 6.071387 -0.654977
v 12.029991 6.071387 -1.111034
v 5.423935 6.071387 1.155760
v 7.716838 6.071387 1.155760
v 7.716837 6.071387 0.577611
v 5.423935 6.071387 0.577611
v 5.423935 6.071387 -0.654979
v 5.423935 6.071387 -1.111035
v 7.716837 6.071387 -0.654979
v 7.716838 6.071387 -1.111035
v 0.027639 6.071387 1.155759
v 2.425400 6.071387 1.155759
v 2.425400 6.071387 0.577610
v 0.027638 6.071387 0.577610
v 0.027638 6.071387 -0.654977
v 0.027639 6.071387 -1.111034
v 2.425400 6.071387 -0.654977
v 2.425400 6.071387 -1.111034
v -4.033185 6.071387 1.155759
v -1.875255 6.071387 1.155759
v -1.875256 6.071387 0.577610
v -4.033186 6.071387 0.577610
v -4.033186 6.071387 -0.654976
v -4.033185 6.071387 -1.111032
v -1.875256 6.071387 -0.654976
v -1.875255 6.071387 -1.111032
v -8.414399 6.071386 1.155760
v -6.372024 6.071387 1.155760
v -6.372025 6.071387 0.577611
v -8.414401 6.071387 0.577611
v -8.414401 6.071387 -0.654979
v -8.414399 6.071386 -1.111035
v -6.372025 6.071387 -0.654979
v -6.372024 6.071387 -1.111035
vt -2.756916 0.000000
vt -2.235753 0.000000
vt -2.235753 0.768376
vt -2.756916 0.768376
vt -2.756916 1.000000
vt -2.235753 1.000000
vt -2.235754 1.000000
vt -2.756916 1.000000
vt -2.756916 0.768376
vt -2.235753 0.768376
vt -2.235753 0.000000
vt -2.756916 0.000000
vt -2.756916 0.000000
vt -2.235753 0.000000
vt 3.756916 0.000000
vt 3.756916 0.000000
vt 3.756916 0.768376
vt 3.756916 0.768376
vt -2.756916 0.768376
vt -2.235754 0.768376
vt -2.235754 0.768376
vt -2.756916 0.768376
vt -2.756916 0.000000
vt -2.235753 0.000000
vt 3.756916 0.000000
vt 3.756916 0.768376
vt -2.756916 1.000000
vt -2.235754 1.000000
vt -2.235753 1.000000
vt -2.756916 1.000000
vt 3.756916 0.000000
vt 3.756916 0.768376
vt -1.740030 0.768376
vt -1.740030 0.768376
vt -1.740030 0.768376
vt -1.740030 0.768376
vt -1.740030 0.000000
vt -1.740030 0.000000
vt -1.740030 0.000000
vt -1.740030 0.000000
vt 3.160717 1.000000
vt 3.756916 1.000000
vt 3.756916 1.000000
vt 3.160717 1.000000
vt 3.160717 0.768376
vt 3.160717 0.768376
vt 3.160717 1.000000
vt 3.160717 1.000000
vt 3.756916 1.000000
vt 3.756916 1.000000
vt 3.160717 0.000000
vt 3.160717 0.768376
vt 3.160717 0.000000
vt 3.160717 0.000000
vt 3.160717 0.000000
vt 3.160717 0.768376
vt 2.597226 0.768376
vt 2.597226 0.768376
vt 2.597226 0.768376
vt 2.597226 0.768376
vt 2.597226 0.000000
vt 2.597226 0.000000
vt 2.597226 0.000000
vt 2.597226 0.000000
vt 1.980726 1.000000
vt 2.597226 1.000000
vt 2.597226 1.000000
vt 1.980726 1.000000
vt 1.980726 0.768376
vt 1.980726 0.768376
vt 1.980726 1.000000
vt 1.980726 1.000000
vt 2.597226 1.000000
vt 2.597226 1.000000
vt 1.980726 0.000000
vt 1.980726 0.768376
vt 1.980726 0.000000
vt 1.980726 0.000000
vt 1.980726 0.000000
vt 1.980726 0.768376
vt 1.174500 0.768376
vt 1.174500 0.768376
vt 1.174500 0.768376
vt 1.174500 0.768376
vt 1.174500 0.000000
vt 1.174500 0.000000
vt 1.174500 0.000000
vt 1.174500 0.000000
vt 0.529807 1.000000
vt 1.174500 1.000000
vt 1.174500 1.000000
vt 0.529807 1.000000
vt 0.529807 0.768376
vt 0.529807 0.768376
vt 0.529807 1.000000
vt 0.529807 1.000000
vt 1.174500 1.000000
vt 1.174500 1.000000
vt 0.529807 0.000000
vt 0.529807 0.768376
vt 0.529807 0.000000
vt 0.529807 0.000000
vt 0.529807 0.000000
vt 0.529807 0.768376
vt 0.018170 0.768376
vt 0.018170 0.768376
vt 0.018170 0.768376
vt 0.018170 0.768376
vt 0.018170 0.000000
vt 0.018170 0.000000
vt 0.018170 0.000000
vt 0.018170 0.000000
vt -0.562039 1.000000
vt 0.018170 1.000000
vt 0.018170 1.000000
vt -0.562039 1.000000
vt -0.562039 0.768376
vt -0.562039 0.768376
vt -0.562039 1.000000
vt -0.562039 1.000000
vt 0.018170 1.000000
vt 0.018170 1.000000
vt -0.562039 0.000000
vt -0.562039 0.768376
vt -0.562039 0.000000
vt -0.562039 0.000000
vt -0.562039 0.000000
vt -0.562039 0.768376
vt -1.190890 0.768376
vt -1.190890 0.768376
vt -1.190890 0.768376
vt -1.190890 0.768376
vt -1.190890 0.000000
vt -1.190890 0.000000
vt -1.190890 0.000000
vt -1.190890 0.000000
vt -1.740030 1.000000
vt -1.190890 1.000000
vt -1.190890 1.000000
vt -1.740030 1.000000
vt -1.740030 1.000000
vt -1.740030 1.000000
vt -1.190890 1.000000
vt -1.190890 1.000000
vn 0.000000 0.000000 1.000000
vn -0.000000 0.000000 1.000000
vn -0.000000 0.000000 1.000000
vn 0.000000 0.000000 1.000000
vn 0.000000 1.000000 -0.000000
vn 0.000000 1.000000 -0.000000
vn 0.000000 1.000000 -0.000000
vn 0.000000 1.000000 -0.000000
vn 0.000000 0.000000 -1.000000
vn -0.000000 0.000000 -1.000000
vn -0.000000 0.000000 -1.000000
vn 0.000000 0.000000 -1.000000
vn 0.000000 -1.000000 0.000000
vn 0.000000 -1.000000 0.000000
vn 0.000000 -1.000000 0.000000
vn 0.000000 -1.000000 0.000000
vn 1.000000 0.000000 0.000000
vn 1.000000 0.000000 0.000000
vn 1.000000 0.000000 0.000000
vn 1.000000 0.000000 0.000000
vn -1.000000 0.000000 0.000000
vn -1.000000 0.000000 0.000000
vn -1.000000 0.000000 0.000000
vn -1.000000 0.000000 0.000000
vn 0.000000 1.000000 0.000000
vn 0.000000 1.000000 0.000000
vn 0.000000 1.000000 0.000000
vn 0.000000 1.000000 0.000000
vn -1.000000 0.000000 0.000000
vn -1.000000 0.000000 0.000000
vn 0.000000 -1.000000 0.000000
vn 0.000000 -1.000000 0.000000
vn 1.000000 0.000000 0.000000
vn 1.000000 0.000000 0.000000
vn 0.000000 1.000000 0.000001
vn 0.000000 1.000000 0.000001
vn 0.000000 1.000000 0.000001
vn 0.000000 1.000000 0.000001
vn -1.000000 0.000000 0.000000
vn -1.000000 0.000000 0.000000
vn 0.000000 -1.000000 0.000000
vn 0.000000 -1.000000 0.000000
vn 1.000000 0.000000 0.000000
vn 1.000000 0.000000 0.000000
vn 0.000000 1.000000 0.000000
vn 0.000000 1.000000 0.000000
vn 0.000000 1.000000 0.000000
vn 0.000000 1.000000 0.000000
vn 0.000000 1.000000 0.000000
vn 0.000000 1.000000 0.000000
vn -0.000000 -0.000000 -1.000000
vn -0.000000 0.000000 -1.000000
vn 0.000000 -1.000000 0.000000
vn 0.000000 -1.000000 0.000000
vn 0.000000 -1.000000 0.000000
vn 0.000000 -1.000000 0.000000
vn -0.000000 0.000000 1.000000
vn -0.000000 -0.000000 1.000000
vn 0.000000 1.000000 0.000000
vn 0.000000 1.000000 0.000000
vn 0.000000 1.000000 0.000000
vn 0.000000 1.000000 0.000000
vn 0.000000 1.000000 0.000000
vn 0.000000 1.000000 0.000000
vn 0.000000 1.000000 0.000000
vn 0.000000 1.000000 0.000000
vn 0.000000 1.000000 0.000000
vn 0.000000 1.000000 0.000000
vn 0.000000 1.000000 0.000000
vn 0.000000 1.000000 0.000000
vn 0.000000 0.000000 -1.000000
vn 0.000000 0.000000 -1.000000
vn 0.000000 0.000000 -1.000000
vn 0.000000 0.000000 -1.000000
vn 0.000000 -1.000000 0.000000
vn 0.000000 -1.000000 0.000000
vn 0.000000 -1.000000 0.000000
vn 0.000000 -1.000000 0.000000
vn 0.000000 -1.000000 0.000000
vn 0.000000 -1.000000 0.000000
vn 0.000000 -1.000000 0.000000
vn 0.000000 -1.000000 0.000000
vn 0.000000 -0.000000 1.000000
vn 0.000000 0.000000 1.000000
vn 0.000000 0.000000 1.000000
vn 0.000000 -0.000000 1.000000
vn 0.000000 1.000000 0.000000
vn 0.000000 1.000000 0.000000
vn 0.000000 1.000000 0.000000
vn 0.000000 1.000000 0.000000
vn 0.000000 1.000000 0.000000
vn 0.000000 1.000000 0.000000
vn 0.000000 0.000000 -1.000000
vn 0.000000 -0.000000 -1.000000
vn 0.000000 -1.000000 0.000000
vn 0.000000 -1.000000 0.000000
vn 0.000000 -1.000000 0.000000
vn 0.000000 -1.000000 0.000000
vn 0.000000 -0.000000 1.000000
vn 0.000000 0.000000 1.000000
vn 0.000000 1.000000 0.000000
vn 0.000000 1.000000 0.000000
vn 0.000000 1.000000 0.000000
vn 0.000000 1.000000 0.000000
vn 0.000000 1.000000 0.000000
vn 0.000000 1.000000 -0.000000
vn 0.000000 1.000000 0.000000
vn 0.000000 1.000000 0.000000
vn 0.000000 1.000000 0.000000
vn 0.000000 1.000000 0.000000
vn 0.000000 0.000000 -1.000000
vn 0.000000 -0.000000 -1.000000
vn 0.000000 -1.000000 0.000000
vn 0.000000 -1.000000 0.000000
vn 0.000000 -1.000000 0.000000
vn 0.000000 -1.000000 0.000000
vn 0.000000 -0.000000 1.000000
vn 0.000000 0.000000 1.000000
vn 0.000000 1.000000 -0.000000
vn 0.000000 1.000000 -0.000000
vn 0.000000 1.000000 -0.000000
vn 0.000000 1.000000 0.000000
vn 0.000000 1.000000 0.000000
vn 0.000000 1.000000 0.000000
vn 0.000000 0.000000 -1.000000
vn 0.000000 0.000000 -1.000000
vn 0.000000 -1.000000 0.000000
vn 0.000000 -1.000000 0.000000
vn 0.000000 -1.000000 0.000000
vn 0.000000 -1.000000 0.000000
vn 0.000000 0.000000 1.000000
vn 0.000000 0.000000 1.000000
vn 0.000000 1.000000 0.000001
vn 0.000000 1.000000 0.000001
vn 0.000000 1.000000 0.000001
vn 0.000000 1.000000 0.000001
vn 0.000000 1.000000 0.000000
vn 0.000000 1.000000 -0.000000
vn 0.000000 1.000000 -0.000001
vn 0.000000 1.000000 -0.000001
vn 0.000000 1.000000 -0.000001
vn 0.000000 1.000000 -0.000001
vn 0.000000 0.000000 -1.000000
vn 0.000000 0.000000 -1.000000
vn 0.000000 -1.000000 0.000000
vn 0.000000 -1.000000 0.000000
vn 0.000000 -1.000000 0.000000
vn 0.000000 -1.000000 0.000000
vn 0.000000 0.000000 1.000000
vn 0.000000 0.000000 1.000000
vn 0.000000 1.000000 -0.000000
vn 0.000000 1.000000 -0.000000
vn 0.000000 1.000000 -0.000000
vn 0.000000 1.000000 0.000000
vn 0.000000 1.000000 0.000001
vn 0.000000 1.000000 0.000001
vn 0.000000 0.000000 -1.000000
vn 0.000000 0.000000 -1.000000
vn 0.000000 -1.000000 0.000000
vn 0.000000 -1.000000 0.000000
vn 0.000000 -1.000000 0.000000
vn 0.000000 -1.000000 0.000000
vn 0.000000 0.000000 1.000000
vn 0.000000 0.000000 1.000000
vn 0.000000 1.000000 0.000000
vn 0.000000 1.000000 0.000000
vn 0.000000 1.000000 0.000000
vn 0.000000 1.000000 0.000000
vn 0.000000 1.000000 -0.000000
vn 0.000000 1.000000 0.000000
vn 0.000000 1.000000 0.000000
vn 0.000000 1.000000 0.000000
vn 0.000000 1.000000 0.000000
vn 0.000000 1.000000 0.000000
vn 0.000000 0.000000 -1.000000
vn 0.000000 0.000000 -1.000000
vn 0.000000 -1.000000 0.000000
vn 0.000000 -1.000000 0.000000
vn 0.000000 -1.000000 0.000000
vn 0.000000 -1.000000 0.000000
vn 0.000000 0.000000 1.000000
vn 0.000000 0.000000 1.000000
vn 0.000000 1.000000 0.000000
vn 0.000000 1.000000 0.000000
vn 0.000000 1.000000 0.000000
vn 0.000000 1.000000 -0.000000
vn 0.000000 1.000000 -0.000000
vn 0.000000 1.000000 -0.000000
vn 0.000000 0.000000 -1.000000
vn 0.000000 -0.000000 -1.000000
vn -0.000000 -1.000000 0.000000
vn -0.000000 -1.000000 0.000000
vn -0.000000 -1.000000 0.000000
vn -0.000000 -1.000000 0.000000
vn 0.000000 -0.000000 1.000000
vn 0.000000 0.000000 1.000000
vn -0.000000 1.000000 0.000000
vn -0.000000 1.000000 0.000000
vn -0.000000 1.000000 0.000000
vn -0.000000 1.000000 0.000000
vn -0.000000 1.000000 -0.000001
vn -0.000000 1.000000 -0.000001
vn -0.000000 1.000000 -0.000001
vn -0.000000 1.000000 -0.000001
vn 0.000000 0.000000 1.000000
vn 0.000000 0.000000 1.000000
vn 1.000000 0.000000 -0.000002
vn 1.000000 0.000000 -0.000002
vn 1.000000 0.000000 -0.000002
vn 1.000000 0.000000 -0.000002
vn 0.000000 0.000000 -1.000000
vn 0.000000 0.000000 -1.000000
vn 0.000000 0.000000 -1.000000
vn 0.000000 0.000000 -1.000000
vn -1.000000 0.000000 0.000000
vn -1.000000 0.000000 0.000000
vn 0.000000 0.000000 1.000000
vn 0.000000 0.000000 1.000000
vn 0.000000 0.000000 1.000000
vn 0.000000 0.000000 1.000000
vn 1.000000 0.000000 0.000002
vn 1.000000 0.000000 0.000002
vn 1.000000 0.000000 0.000002
vn 1.000000 0.000000 0.000002
vn 0.000000 0.000000 -1.000000
vn 0.000000 0.000000 -1.000000
vn -1.000000 0.000000 0.000000
vn -1.000000 0.000000 0.000000
vn 0.000000 -0.000000 1.000000
vn 0.000000 -0.000000 1.000000
vn 1.000000 0.000000 0.000000
vn 1.000000 0.000000 0.000000
vn 0.000000 0.000000 -1.000000
vn 0.000000 0.000000 -1.000000
vn 0.000000 0.000000 -1.000000
vn 0.000000 0.000000 -1.000000
vn -1.000000 0.000000 0.000002
vn -1.000000 0.000000 0.000002
vn -1.000000 0.000000 0.000002
vn -1.000000 0.000000 0.000002
vn -1.000000 0.000000 -0.000002
vn -1.000000 0.000000 -0.000002
vn -1.000000 0.000000 -0.000002
vn -1.000000 0.000000 -0.000002
vn 0.000000 0.000000 1.000000
vn 0.000000 0.000000 1.000000
vn 0.000000 0.000000 1.000000
vn 0.000000 0.000000 1.000000
vn 1.000000 0.000000 0.000000
vn 1.000000 0.000000 0.000000
vn 0.000000 0.000000 -1.000000
vn 0.000000 0.000000 -1.000000
vn 0.000000 -0.000001 1.000000
vn 0.000000 -0.000001 1.000000
vn 1.000000 -0.000000 -0.000002
vn 1.000000 -0.000000 -0.000002
vn 1.000000 -0.000000 -0.000002
vn 1.000000 -0.000000 -0.000002
vn 0.000000 0.000001 -1.000000
vn 0.000000 0.000001 -1.000000
vn 0.000000 0.000001 -1.000000
vn 0.000000 0.000001 -1.000000
vn -1.000000 -0.000000 0.000001
vn -1.000000 -0.000000 0.000001
vn -1.000000 -0.000000 0.000001
vn -1.000000 -0.000000 0.000001
vn -1.000000 -0.000000 -0.000001
vn -1.000000 -0.000000 -0.000001
vn -1.000000 -0.000000 -0.000001
vn -1.000000 -0.000000 -0.000001
vn 0.000000 0.000001 1.000000
vn 0.000000 0.000001 1.000000
vn 0.000000 0.000001 1.000000
vn 0.000000 0.000001 1.000000
vn 1.000000 0.000000 0.000002
vn 1.000000 0.000000 0.000002
vn 1.000000 0.000000 0.000002
vn 1.000000 0.000000 0.000002
vn 0.000000 -0.000001 -1.000000
vn 0.000000 -0.000001 -1.000000
vn 0.000000 0.000000 1.000000
vn 0.000000 0.000000 1.000000
vn 1.000000 -0.000000 -0.000001
vn 1.000000 -0.000000 -0.000001
vn 1.000000 -0.000000 -0.000001
vn 1.000000 -0.000000 -0.000001
vn 0.000000 -0.000000 -1.000000
vn 0.000000 -0.000000 -1.000000
vn 0.000000 -0.000000 -1.000000
vn 0.000000 -0.000000 -1.000000
vn -1.000000 -0.000000 0.000001
vn -1.000000 -0.000000 0.000001
vn -1.000000 -0.000000 0.000001
vn -1.000000 -0.000000 0.000001
vn -1.000000 0.000000 -0.000002
vn -1.000000 0.000000 -0.000002
vn -1.000000 0.000000 -0.000002
vn -1.000000 0.000000 -0.000002
vn 0.000000 0.000000 1.000000
vn 0.000000 0.000000 1.000000
vn 0.000000 0.000000 1.000000
vn 0.000000 0.000000 1.000000
vn 1.000000 0.000000 0.000001
vn 1.000000 0.000000 0.000001
vn 1.000000 0.000000 0.000001
vn 1.000000 0.000000 0.000001
vn 0.000000 0.000000 -1.000000
vn 0.000000 0.000000 -1.000000
vn 0.000000 0.000001 1.000000
vn 0.000000 0.000001 1.000000
vn 1.000000 -0.000000 -0.000001
vn 1.000000 -0.000000 -0.000001
vn 1.000000 -0.000000 -0.000001
vn 1.000000 -0.000000 -0.000001
vn 0.000000 -0.000001 -1.000000
vn 0.000000 -0.000001 -1.000000
vn 0.000000 -0.000001 -1.000000
vn 0.000000 -0.000001 -1.000000
vn -1.000000 -0.000000 0.000002
vn -1.000000 -0.000000 0.000002
vn -1.000000 -0.000000 0.000002
vn -1.000000 -0.000000 0.000002
vn -1.000000 -0.000000 -0.000002
vn -1.000000 -0.000000 -0.000002
vn -1.000000 -0.000000 -0.000002
vn -1.000000 -0.000000 -0.000002
vn 0.000000 -0.000001 1.000000
vn 0.000000 -0.000001 1.000000
vn 0.000000 -0.000001 1.000000
vn 0.000000 -0.000001 1.000000
vn 1.000000 0.000000 0.000002
vn 1.000000 0.000000 0.000002
vn 1.000000 0.000000 0.000002
vn 1.000000 0.000000 0.000002
vn 0.000000 0.000001 -1.000000
vn 0.000000 0.000001 -1.000000
vn 0.000000 -0.000001 1.000000
vn 0.000000 -0.000001 1.000000
vn 1.000000 0.000000 -0.000001
vn 1.000000 0.000000 -0.000001
vn 1.000000 0.000000 -0.000001
vn 1.000000 0.000000 -0.000001
vn 0.000000 0.000001 -1.000000
vn 0.000000 0.000001 -1.000000
vn 0.000000 0.000001 -1.000000
vn 0.000000 0.000001 -1.000000
vn -1.000000 -0.000000 0.000003
vn -1.000000 -0.000000 0.000003
vn -1.000000 -0.000000 0.000003
vn -1.000000 -0.000000 0.000003
vn -1.000000 -0.000000 -0.000004
vn -1.000000 -0.000000 -0.000004
vn -1.000000 -0.000000 -0.000004
vn -1.000000 -0.000000 -0.000004
vn 0.000000 0.000001 1.000000
vn 0.000000 0.000001 1.000000
vn 0.000000 0.000001 1.000000
vn 0.000000 0.000001 1.000000
vn 1.000000 -0.000000 0.000001
vn 1.000000 -0.000000 0.000001
vn 1.000000 -0.000000 0.000001
vn 1.000000 -0.000000 0.000001
vn 0.000000 -0.000001 -1.000000
vn 0.000000 -0.000001 -1.000000
g pCube1
f 1/1/1 24/2/2 17/3/3 3/4/4
f 97/5/5 98/6/6 99/7/7 100/8/8
f 5/9/9 20/10/10 21/11/11 7/12/12
f 11/13/13 23/14/14 24/2/15 1/1/16
f 2/15/17 12/16/18 9/17/19 4/18/20
f 11/13/21 1/1/22 3/4/23 10/19/24
f 10/19/25 18/20/26 19/21/27 14/22/28
f 15/23/29 11/13/21 10/19/24 14/22/30
f 15/23/31 22/24/32 23/14/14 11/13/13
f 9/17/19 12/16/18 16/25/33 13/26/34
f 102/27/35 101/28/36 103/29/37 104/30/38
f 7/12/39 15/23/29 14/22/30 5/9/40
f 7/12/41 21/11/42 22/24/32 15/23/31
f 13/26/34 16/25/33 8/31/43 6/32/44
f 17/3/45 89/33/46 90/34/47 18/20/26
f 19/21/27 18/20/26 90/34/47 91/35/48
f 20/10/49 19/21/27 91/35/48 92/36/50
f 21/11/11 20/10/10 92/36/51 93/37/52
f 22/24/32 21/11/42 93/37/53 94/38/54
f 23/14/14 22/24/32 94/38/54 95/39/55
f 24/2/15 23/14/14 95/39/55 96/40/56
f 17/3/3 24/2/2 96/40/57 89/33/58
f 105/41/59 106/42/60 107/43/61 108/44/62
f 27/45/63 26/46/64 9/17/65 13/26/66
f 110/47/67 109/48/68 111/49/69 112/50/70
f 29/51/71 28/52/72 6/32/73 8/31/74
f 30/53/75 29/51/76 8/31/77 16/25/78
f 31/54/79 30/53/75 16/25/78 12/16/80
f 32/55/81 31/54/79 12/16/80 2/15/82
f 25/56/83 32/55/84 2/15/85 4/18/86
f 33/57/87 25/56/88 26/46/64 34/58/89
f 35/59/90 34/58/89 26/46/64 27/45/63
f 36/60/91 35/59/90 27/45/63 28/52/92
f 37/61/93 36/60/94 28/52/72 29/51/71
f 38/62/95 37/61/96 29/51/76 30/53/75
f 39/63/97 38/62/95 30/53/75 31/54/79
f 40/64/98 39/63/97 31/54/79 32/55/81
f 33/57/99 40/64/100 32/55/84 25/56/83
f 113/65/101 114/66/102 115/67/103 116/68/104
f 43/69/105 42/70/106 34/58/89 35/59/90
f 118/71/107 117/72/108 119/73/109 120/74/110
f 45/75/111 44/76/112 36/60/94 37/61/93
f 46/77/113 45/75/114 37/61/96 38/62/95
f 47/78/115 46/77/113 38/62/95 39/63/97
f 48/79/116 47/78/115 39/63/97 40/64/98
f 41/80/117 48/79/118 40/64/100 33/57/99
f 49/81/119 41/80/120 42/70/106 50/82/121
f 51/83/122 50/82/121 42/70/106 43/69/105
f 52/84/123 51/83/122 43/69/105 44/76/124
f 53/85/125 52/84/126 44/76/112 45/75/111
f 54/86/127 53/85/128 45/75/114 46/77/113
f 55/87/129 54/86/127 46/77/113 47/78/115
f 56/88/130 55/87/129 47/78/115 48/79/116
f 49/81/131 56/88/132 48/79/118 41/80/117
f 121/89/133 122/90/134 123/91/135 124/92/136
f 59/93/137 58/94/138 50/82/121 51/83/122
f 126/95/139 125/96/140 127/97/141 128/98/142
f 61/99/143 60/100/144 52/84/126 53/85/125
f 62/101/145 61/99/146 53/85/128 54/86/127
f 63/102/147 62/101/145 54/86/127 55/87/129
f 64/103/148 63/102/147 55/87/129 56/88/130
f 57/104/149 64/103/150 56/88/132 49/81/131
f 65/105/151 57/104/152 58/94/138 66/106/153
f 67/107/154 66/106/153 58/94/138 59/93/137
f 68/108/155 67/107/154 59/93/137 60/100/156
f 69/109/157 68/108/158 60/100/144 61/99/143
f 70/110/159 69/109/160 61/99/146 62/101/145
f 71/111/161 70/110/159 62/101/145 63/102/147
f 72/112/162 71/111/161 63/102/147 64/103/148
f 65/105/163 72/112/164 64/103/150 57/104/149
f 129/113/165 130/114/166 131/115/167 132/116/168
f 75/117/169 74/118/170 66/106/153 67/107/154
f 134/119/171 133/120/172 135/121/173 136/122/174
f 77/123/175 76/124/176 68/108/158 69/109/157
f 78/125/177 77/123/178 69/109/160 70/110/159
f 79/126/179 78/125/177 70/110/159 71/111/161
f 80/127/180 79/126/179 71/111/161 72/112/162
f 73/128/181 80/127/182 72/112/164 65/105/163
f 81/129/183 73/128/184 74/118/170 82/130/185
f 83/131/186 82/130/185 74/118/170 75/117/169
f 84/132/187 83/131/186 75/117/169 76/124/188
f 85/133/189 84/132/190 76/124/176 77/123/175
f 86/134/191 85/133/192 77/123/178 78/125/177
f 87/135/193 86/134/191 78/125/177 79/126/179
f 88/136/194 87/135/193 79/126/179 80/127/180
f 81/129/195 88/136/196 80/127/182 73/128/181
f 137/137/197 138/138/198 139/139/199 140/140/200
f 91/35/48 90/34/47 82/130/185 83/131/186
f 142/141/201 141/142/202 143/143/203 144/144/204
f 93/37/52 92/36/51 84/132/190 85/133/189
f 94/38/54 93/37/53 85/133/192 86/134/191
f 95/39/55 94/38/54 86/134/191 87/135/193
f 96/40/56 95/39/55 87/135/193 88/136/194
f 89/33/58 96/40/57 88/136/196 81/129/195
f 3/4/4 17/3/3 98/6/205 97/5/206
f 17/3/207 18/20/208 99/7/209 98/6/210
f 18/20/211 10/19/212 100/8/213 99/7/214
f 10/19/24 3/4/23 97/5/215 100/8/216
f 14/22/217 19/21/218 101/28/219 102/27/220
f 19/21/221 20/10/222 103/29/223 101/28/224
f 20/10/10 5/9/9 104/30/225 103/29/226
f 5/9/40 14/22/30 102/27/227 104/30/228
f 25/56/83 4/18/86 106/42/229 105/41/230
f 4/18/20 9/17/19 107/43/231 106/42/232
f 9/17/233 26/46/234 108/44/235 107/43/236
f 26/46/237 25/56/238 105/41/239 108/44/240
f 28/52/241 27/45/242 109/48/243 110/47/244
f 27/45/245 13/26/246 111/49/247 109/48/248
f 13/26/34 6/32/44 112/50/249 111/49/250
f 6/32/73 28/52/72 110/47/251 112/50/252
f 41/80/117 33/57/99 114/66/253 113/65/254
f 33/57/255 34/58/256 115/67/257 114/66/258
f 34/58/259 42/70/260 116/68/261 115/67/262
f 42/70/263 41/80/264 113/65/265 116/68/266
f 44/76/267 43/69/268 117/72/269 118/71/270
f 43/69/271 35/59/272 119/73/273 117/72/274
f 35/59/275 36/60/276 120/74/277 119/73/278
f 36/60/94 44/76/112 118/71/279 120/74/280
f 57/104/149 49/81/131 122/90/281 121/89/282
f 49/81/283 50/82/284 123/91/285 122/90/286
f 50/82/287 58/94/288 124/92/289 123/91/290
f 58/94/291 57/104/292 121/89/293 124/92/294
f 60/100/295 59/93/296 125/96/297 126/95/298
f 59/93/299 51/83/300 127/97/301 125/96/302
f 51/83/303 52/84/304 128/98/305 127/97/306
f 52/84/126 60/100/144 126/95/307 128/98/308
f 73/128/181 65/105/163 130/114/309 129/113/310
f 65/105/311 66/106/312 131/115/313 130/114/314
f 66/106/315 74/118/316 132/116/317 131/115/318
f 74/118/319 73/128/320 129/113/321 132/116/322
f 76/124/323 75/117/324 133/120/325 134/119/326
f 75/117/327 67/107/328 135/121/329 133/120/330
f 67/107/331 68/108/332 136/122/333 135/121/334
f 68/108/158 76/124/176 134/119/335 136/122/336
f 89/33/58 81/129/195 138/138/337 137/137/338
f 81/129/339 82/130/340 139/139/341 138/138/342
f 82/130/343 90/34/344 140/140/345 139/139/346
f 90/34/347 89/33/348 137/137/349 140/140/350
f 92/36/351 91/35/352 141/142/353 142/141/354
f 91/35/355 83/131/356 143/143/357 141/142/358
f 83/131/359 84/132/360 144/144/361 143/143/362
f 84/132/190 92/36/51 142/141/363 144/144/364
