# This file uses centimeters as units for non-parametric coordinates.

v -87.500000 -0.000000 60.000000
v 87.500000 -0.000000 60.000000
v -87.500000 0.000000 -60.000000
v 87.500000 0.000000 -60.000000
v -55.163288 0.000000 -60.000000
v -55.163288 -0.000000 60.000000
v -87.500000 0.000000 -34.412170
v 87.500000 0.000000 -34.412170
v 17.147404 -1.640627 -2.124691
v -0.463737 -1.640627 -14.918606
v -17.248875 -1.640627 -2.124691
v -0.463737 -1.640627 14.338686
v 21.937988 -0.970545 -2.124691
v -0.463737 -0.970545 -20.355644
v -21.440189 -0.970545 -2.124691
v -21.468319 -0.970545 -2.124691
v -0.463737 -0.970545 17.618864
v -35.746689 0.000000 -60.000000
v 14.710739 -0.970545 -14.273396
v 12.315445 -1.640627 -11.554878
v -87.500000 0.000000 -17.525640
v -13.742252 -0.970545 11.142302
v -12.422253 -1.640627 8.759907
v -14.786266 -0.970545 -12.710667
v -12.690609 -1.640627 -9.992146
v 87.500000 -0.000000 40.508289
v 12.470531 -0.970545 11.435036
v 9.896374 -1.640627 10.059973
vt 0.731097 0.746309
vt 0.785468 0.794215
vt 0.798372 0.490725
vt 0.907113 0.490725
vt 1.700000 -0.214934
vt 1.700000 -0.603266
vt 0.754213 0.204275
vt 1.700000 -1.250000
vt 0.699843 0.246188
vt 0.542494 0.155022
vt 0.542494 0.071196
vt 0.542494 0.070634
vt 0.277154 0.225155
vt 0.324802 0.251555
vt 0.850513 -1.250000
vt 1.188243 -1.250000
vt 0.542494 0.842948
vt 0.542494 0.938760
vt -0.700000 -1.250000
vt -0.700000 -0.603266
vt 0.147623 0.490725
vt 0.213226 0.490725
vt -0.700000 2.250000
vt 0.271299 0.749411
vt -0.310166 2.250000
vt 0.298800 0.697927
vt 1.188243 2.250000
vt 1.700000 2.250000
vn -0.051574 0.979260 0.195934
vn -0.050307 0.985970 0.159164
vn 0.009742 0.987630 0.156499
vn 0.008104 0.992458 0.122315
vn 0.000000 0.999775 0.021220
vn -0.003599 0.999612 0.027633
vn -0.010960 0.999219 0.037956
vn -0.007198 0.999382 0.034398
vn 0.003762 0.999843 0.017308
vn 0.000000 0.999790 0.020519
vn 0.178616 0.978461 0.103487
vn 0.167867 0.980609 0.101123
vn 0.164945 0.985308 0.044279
vn 0.094429 0.995425 -0.014553
vn 0.009280 0.999956 0.001372
vn 0.120352 0.990272 -0.069832
vn 0.198215 0.974602 -0.104223
vn 0.017005 0.999806 -0.009903
vn 0.015851 0.999862 -0.004952
vn 0.014697 0.999892 0.000000
vn 0.008057 0.999939 0.007572
vn 0.009474 0.999937 0.005955
vn 0.074267 0.980056 0.184321
vn 0.069745 0.985720 0.153268
vn -0.173491 0.980815 0.088896
vn -0.161271 0.986860 -0.009999
vn -0.155801 0.984079 0.085527
vn -0.138523 0.990334 -0.007098
vn 0.000000 1.000000 0.000000
vn 0.005639 0.999925 -0.010875
vn 0.007851 0.999964 -0.003275
vn 0.011278 0.999883 -0.010301
vn 0.000453 0.999870 -0.016147
vn 0.101230 0.970910 -0.216994
vn 0.099199 0.973063 -0.208107
vn 0.038814 0.977785 -0.205985
vn -0.034649 0.975701 -0.216348
vn -0.006143 0.999915 -0.011463
vn -0.009215 0.999941 -0.005747
vn -0.012934 0.999916 0.000000
vn -0.192502 0.974587 -0.114557
vn -0.165263 0.980595 -0.105459
vn -0.016764 0.999846 -0.005249
vn -0.008170 0.999926 0.008999
vn -0.015688 0.999871 -0.003324
vn 0.000000 0.999775 0.021220
vn -0.004853 0.999897 0.013498
vn -0.012934 0.999916 0.000000
vn -0.017744 0.999812 -0.007873
vn -0.118235 0.961697 -0.247304
vn -0.100355 0.969526 -0.223492
f 20/1/1 19/2/2 10/3/3
f 10/3/3 19/2/2 14/4/4
f 18/5/5 5/6/6 19/2/7
f 19/2/7 5/6/6 14/4/8
f 14/4/8 5/6/6 24/7/9
f 24/7/9 5/6/6 3/8/10
f 25/9/11 24/7/12 11/10/13
f 11/10/13 24/7/12 15/11/14
f 16/12/15 22/13/16 15/11/14
f 22/13/16 23/14/17 15/11/14
f 23/14/17 11/10/13 15/11/14
f 22/13/18 16/12/15 21/15/19
f 21/15/19 16/12/15 7/16/20
f 7/16/20 16/12/15 3/8/21
f 24/7/22 3/8/21 15/11/14
f 3/8/21 16/12/15 15/11/14
f 25/9/23 10/3/3 24/7/24
f 24/7/24 10/3/3 14/4/4
f 20/1/25 9/17/26 19/2/27
f 19/2/27 9/17/26 13/18/28
f 1/19/29 6/20/30 21/15/31
f 21/15/31 6/20/30 22/13/32
f 6/20/30 17/21/33 22/13/32
f 23/14/34 22/13/35 12/22/36
f 12/22/36 22/13/35 17/21/37
f 6/20/30 2/23/38 17/21/33
f 17/21/33 2/23/38 27/24/39
f 2/23/38 26/25/40 27/24/39
f 28/26/41 27/24/42 9/17/26
f 9/17/26 27/24/42 13/18/28
f 8/27/43 4/28/44 13/18/45
f 18/5/46 19/2/47 4/28/44
f 19/2/47 13/18/45 4/28/44
f 26/25/48 8/27/43 27/24/49
f 27/24/49 8/27/43 13/18/45
f 27/24/50 28/26/51 17/21/37
f 17/21/37 28/26/51 12/22/36
