# This file uses centimeters as units for non-parametric coordinates.

v -10.933197 -0.944194 13.045861
v 15.539459 -0.944194 13.045861
v -7.372833 7.651131 13.045861
v 15.539459 7.651131 13.045861
v -10.933197 7.651131 -15.076637
v 15.539459 7.651131 -15.076637
v -10.933197 -0.944194 -15.076637
v 15.539459 -0.944194 -15.076637
v 4.666412 7.651131 13.045861
v 0.787353 7.651131 -15.076637
v 4.029754 9.738043 -4.142036
v -1.469055 9.738043 -3.348518
v 15.539459 7.651131 -3.606513
v -10.933197 7.651131 -2.053260
v -1.469055 9.738043 1.787102
v 5.418426 9.738043 0.503197
v -2.236725 9.738043 -0.780708
v 3.024872 9.738043 3.374108
v 0.540680 9.738043 -4.935523
v 0.540680 9.738043 3.374108
v 2.497925 93.882857 -1.300300
v 2.055939 93.882857 -1.621406
v 1.509613 93.882857 -1.621406
v 1.067627 93.882857 -1.300300
v 0.898804 93.882857 -0.780708
v 1.067627 93.882857 -0.261116
v 1.509613 93.882857 0.059990
v 2.055939 93.882857 0.059990
v 2.497925 93.882857 -0.261116
v 2.666748 93.882857 -0.780708
v 1.171997 93.906164 2.703301
v 2.103912 93.906164 2.703301
v 3.035827 93.906164 2.703301
v 0.240051 94.544958 2.703301
v 1.171997 94.544958 4.258568
v 2.103912 94.544958 4.258568
v 3.035827 94.544958 4.258568
v 3.967773 94.544958 2.703301
v 0.240051 95.183752 2.703301
v 1.171997 95.183752 4.258568
v 2.103912 95.183752 4.265313
v 3.035827 95.183752 4.258568
v 3.967773 95.183752 2.703301
v 0.240051 95.822546 2.703301
v 1.171997 95.822546 4.258568
v 2.103912 95.822546 4.258568
v 3.035827 95.822546 4.258568
v 3.967773 95.822546 2.703301
v 1.171997 96.461340 2.703301
v 2.103912 96.461340 2.703301
v 3.035827 96.461340 2.703301
v 1.171997 96.461340 0.749962
v 2.103912 96.461340 0.749962
v 3.035827 96.461340 0.749962
v 1.171997 96.461340 -1.203376
v 2.103912 96.461340 -1.203376
v 3.035827 96.461340 -1.203376
v 1.171997 96.461340 -3.156715
v 2.103912 96.461340 -3.156715
v 3.035827 96.461340 -3.156715
v 1.171997 96.461340 -5.110054
v 2.103912 96.461340 -5.110054
v 3.035827 96.461340 -5.110054
v 0.240051 95.297240 -5.110054
v 1.171997 95.451300 -5.662879
v 2.103912 95.663962 -5.662879
v 3.035827 95.445296 -5.662879
v 3.967773 95.070372 -5.110054
v 0.240051 95.183752 -5.110054
v 0.984955 95.183752 -5.662879
v 2.103912 95.183752 -5.952918
v 3.215729 95.183752 -5.662879
v 0.240051 95.065733 -5.110054
v 1.171997 94.888022 -5.662879
v 2.103912 94.689116 -5.662879
v 3.035827 94.943320 -5.662879
v 1.171997 94.198820 -4.784431
v 2.103912 93.901373 -4.703559
v 3.035827 94.198820 -4.784431
v 1.171997 93.906164 -3.156715
v 2.103912 93.906164 -3.156715
v 3.035827 93.906164 -3.156715
v 1.171997 93.906164 -1.203376
v 2.103912 93.906164 -1.203376
v 3.035827 93.906164 -1.203376
v 1.171997 93.906164 0.749962
v 2.103912 93.906164 0.749962
v 3.035827 93.906164 0.749962
v 3.967773 94.544958 -3.156715
v 3.967773 94.544958 -1.203376
v 3.967773 94.544958 0.749962
v 3.967773 95.183752 -3.156715
v 3.967773 95.183752 -1.203376
v 3.967773 95.183752 0.749962
v 3.967773 95.822546 -3.156715
v 3.967773 95.822546 -1.203376
v 3.967773 95.822546 0.749962
v 0.240051 94.544958 -3.156715
v 0.240051 94.544958 -1.203376
v 0.240051 94.544958 0.749962
v 0.240051 95.183752 -3.156715
v 0.240051 95.183752 -1.203376
v 0.240051 95.183752 0.749962
v 0.240051 95.822546 -3.156715
v 0.240051 95.822546 -1.203376
v 0.240051 95.822546 0.749962
v 2.103912 96.806082 -3.156715
v 1.171997 96.806082 -5.110054
v 2.103912 96.806082 -5.110054
vt 0.375000 0.000000
vt 0.625000 0.000000
vt 0.408623 0.250000
vt 0.656761 0.250000
vt 0.375000 0.500000
vt 0.625000 0.500000
vt 0.375000 0.750000
vt 0.625000 0.750000
vt 0.875000 0.000000
vt 0.875000 0.250000
vt 0.125000 0.000000
vt 0.125000 0.250000
vt 0.522318 0.250000
vt 0.485685 0.500000
vt 0.445495 0.432516
vt 0.518128 0.431957
vt 0.773035 0.250000
vt 0.625000 0.398035
vt 0.375000 0.384226
vt 0.443827 0.338799
vt 0.543268 0.351848
vt 0.240774 0.250000
vt 0.444832 0.395282
vt 0.507672 0.329891
vt 0.473129 0.432303
vt 0.476377 0.334258
vt 0.387500 0.312500
vt 0.375000 0.688440
vt 0.400000 0.688440
vt 0.425000 0.312500
vt 0.425000 0.688440
vt 0.450000 0.312500
vt 0.450000 0.688440
vt 0.475000 0.312500
vt 0.475000 0.688440
vt 0.500000 0.312500
vt 0.500000 0.688440
vt 0.525000 0.312500
vt 0.525000 0.688440
vt 0.550000 0.312500
vt 0.550000 0.688440
vt 0.587500 0.312500
vt 0.575000 0.688440
vt 0.600000 0.688440
vt 0.625000 0.312500
vt 0.625000 0.688440
vt 0.437500 0.000000
vt 0.437500 0.062500
vt 0.375000 0.062500
vt 0.500000 0.000000
vt 0.500000 0.062500
vt 0.562500 0.000000
vt 0.562500 0.062500
vt 0.625000 0.062500
vt 0.375000 0.125000
vt 0.437500 0.125000
vt 0.500000 0.125000
vt 0.562500 0.125000
vt 0.625000 0.125000
vt 0.375000 0.187500
vt 0.437500 0.187500
vt 0.500000 0.187500
vt 0.562500 0.187500
vt 0.625000 0.187500
vt 0.437500 0.250000
vt 0.500000 0.250000
vt 0.562500 0.250000
vt 0.437500 0.312500
vt 0.500000 0.312500
vt 0.562500 0.312500
vt 0.687500 0.187500
vt 0.437500 0.375000
vt 0.500000 0.375000
vt 0.562500 0.375000
vt 0.750000 0.187500
vt 0.437500 0.437500
vt 0.500000 0.437500
vt 0.562500 0.437500
vt 0.812500 0.187500
vt 0.437500 0.500000
vt 0.437500 0.500000
vt 0.500000 0.437500
vt 0.500000 0.500000
vt 0.500000 0.500000
vt 0.562500 0.500000
vt 0.875000 0.187500
vt 0.437500 0.562500
vt 0.375000 0.562500
vt 0.500000 0.562500
vt 0.562500 0.562500
vt 0.625000 0.562500
vt 0.437500 0.625000
vt 0.375000 0.625000
vt 0.500000 0.625000
vt 0.562500 0.625000
vt 0.375000 0.687500
vt 0.437500 0.687500
vt 0.500000 0.687500
vt 0.562500 0.687500
vt 0.625000 0.687500
vt 0.437500 0.750000
vt 0.500000 0.750000
vt 0.562500 0.750000
vt 0.437500 0.812500
vt 0.500000 0.812500
vt 0.562500 0.812500
vt 0.812500 0.062500
vt 0.875000 0.062500
vt 0.437500 0.875000
vt 0.500000 0.875000
vt 0.562500 0.875000
vt 0.750000 0.062500
vt 0.437500 0.937500
vt 0.500000 0.937500
vt 0.562500 0.937500
vt 0.687500 0.062500
vt 0.437500 1.000000
vt 0.500000 1.000000
vt 0.562500 1.000000
vt 0.812500 0.125000
vt 0.750000 0.125000
vt 0.687500 0.125000
vt 0.187500 0.062500
vt 0.125000 0.062500
vt 0.250000 0.062500
vt 0.312500 0.062500
vt 0.187500 0.125000
vt 0.125000 0.125000
vt 0.250000 0.125000
vt 0.312500 0.125000
vt 0.125000 0.187500
vt 0.187500 0.187500
vt 0.250000 0.187500
vt 0.312500 0.187500
vn 0.000000 1.000000 0.000000
vn 0.179568 0.969108 -0.169071
vn 0.100972 0.994889 0.000911
vn 0.000000 1.000000 0.000000
vn -0.496749 0.866172 0.054653
vn -0.544567 0.828829 0.128408
vn 0.024210 0.894475 0.446463
vn 0.000000 0.707107 0.707107
vn 0.474307 0.879725 -0.033422
vn 0.672697 0.664118 -0.326231
vn 0.104117 0.975688 0.192856
vn -0.142669 0.960253 -0.239915
vn -0.232488 0.910828 0.341089
vn -0.312047 0.909460 0.274790
vn -0.233745 0.972294 0.002876
vn -0.236145 0.952952 -0.190047
vn -1.000000 0.000000 0.000000
vn -1.000000 0.000001 0.000000
vn -0.975373 0.191679 0.109116
vn 0.000000 0.000000 1.000000
vn 0.000000 0.000000 1.000000
vn 0.000000 0.000000 1.000000
vn 0.000000 0.000000 -1.000000
vn 0.000000 0.000000 -1.000000
vn 0.000000 0.000000 -1.000000
vn 0.000000 0.000000 -1.000000
vn 0.000000 0.000000 -1.000000
vn 1.000000 0.000000 0.000000
vn 1.000000 0.000000 0.000000
vn 1.000000 0.000000 0.000000
vn 1.000000 0.000000 0.000000
vn 1.000000 0.000000 0.000000
vn 0.808557 0.034557 -0.587403
vn 0.871151 0.032352 -0.489948
vn 0.587344 0.037994 -0.808445
vn 0.221620 0.034391 -0.974526
vn 0.111506 0.037104 -0.993071
vn 0.111506 0.037104 -0.993071
vn 0.000000 0.039354 -0.999225
vn -0.619277 0.038020 -0.784252
vn -0.603438 0.037710 -0.796518
vn -0.603438 0.037710 -0.796518
vn -0.587357 0.037386 -0.808464
vn -0.957485 0.035833 -0.286251
vn -0.954041 0.035627 -0.297550
vn -0.954041 0.035627 -0.297550
vn -0.950465 0.035417 -0.308808
vn -0.957490 0.035679 0.286252
vn -0.954031 0.035927 0.297547
vn -0.954031 0.035927 0.297547
vn -0.950439 0.036169 0.308800
vn -0.619294 0.037760 0.784251
vn -0.603406 0.038190 0.796519
vn -0.603406 0.038190 0.796519
vn -0.587275 0.038605 0.808467
vn 0.000000 0.039355 0.999225
vn 0.000000 0.039355 0.999225
vn 0.000000 0.039355 0.999225
vn 0.000000 0.039354 0.999225
vn 0.767620 0.034046 0.640001
vn 0.794847 0.033639 0.605878
vn 0.682827 0.031129 0.729917
vn 0.808552 0.033399 0.587476
vn 0.950444 0.035795 0.308829
vn 0.957756 0.026952 -0.286315
vn 0.954289 0.027348 -0.297632
vn -0.278797 -0.888342 0.364857
vn -0.483737 -0.565436 0.668042
vn -0.773030 -0.433442 0.463198
vn 0.000000 -0.925015 0.379931
vn -0.001457 -0.559731 0.828673
vn 0.185005 -0.909046 0.373374
vn 0.358725 -0.439718 0.823386
vn 0.822137 -0.285312 0.492634
vn -0.857794 0.000000 0.513995
vn -0.495064 -0.002020 0.868854
vn -0.000000 -0.000000 1.000000
vn 0.495064 0.002019 0.868854
vn 0.857793 0.000000 0.513995
vn -0.822137 0.285318 0.492630
vn -0.358722 0.439722 0.823386
vn 0.001457 0.559731 0.828673
vn 0.483741 0.565433 0.668042
vn 0.773034 0.433433 0.463201
vn -0.185000 0.909049 0.373370
vn 0.000000 0.925015 0.379931
vn 0.278804 0.888338 0.364862
vn -0.392508 0.919749 0.000000
vn 0.000000 1.000000 0.000000
vn -0.295949 0.955204 0.000000
vn 0.000000 1.000000 0.000000
vn 0.295947 0.955205 0.000000
vn 0.295949 0.955204 0.000000
vn 0.884696 0.466168 0.000000
vn 0.952002 0.306093 0.000000
vn -0.295951 0.955203 0.000000
vn 0.000000 1.000000 0.000000
vn 0.295951 0.955203 0.000000
vn 0.884698 0.466165 0.000000
vn -0.236308 0.971678 0.000000
vn 0.000000 1.000000 0.000000
vn 0.236308 0.971678 0.000000
vn 0.830316 0.555954 -0.038597
vn -0.479031 0.875782 -0.059463
vn 0.000000 1.000000 0.000000
vn 0.000000 1.000000 0.000000
vn 0.000000 1.000000 0.000000
vn 0.000000 1.000000 0.000000
vn 0.501252 0.861935 -0.076248
vn 0.991208 -0.059104 -0.118383
vn -0.132031 0.309021 -0.941846
vn -0.309610 0.398273 -0.863436
vn -0.553065 0.262913 -0.790567
vn 0.000000 0.395830 -0.918324
vn 0.000973 0.522528 -0.852622
vn 0.239661 0.496422 -0.834343
vn 0.340278 0.403584 -0.849312
vn 0.603108 -0.079506 -0.793687
vn -0.474435 0.007889 -0.880255
vn -0.595969 0.000000 -0.803008
vn 0.004768 0.003350 -0.999983
vn 0.424673 0.001070 -0.905346
vn -0.555164 -0.362390 -0.748643
vn -0.318032 -0.520984 -0.792106
vn 0.011574 -0.693585 -0.720282
vn 0.320431 -0.521601 -0.790732
vn -0.273560 -0.752182 -0.599489
vn 0.000008 -0.772826 -0.634618
vn 0.278763 -0.735940 -0.616996
vn -0.498675 -0.849001 -0.174700
vn 0.006215 -0.998391 -0.056368
vn -0.342698 -0.937875 -0.054296
vn 0.051168 -0.998277 -0.028736
vn 0.388752 -0.911265 -0.135898
vn 0.295719 -0.953595 -0.056629
vn 0.891562 -0.448166 -0.065304
vn -0.295953 -0.955203 0.000000
vn 0.000000 -1.000000 0.000000
vn 0.295953 -0.955203 0.000000
vn 0.884697 -0.466166 0.000000
vn -0.295949 -0.955204 0.000000
vn 0.000000 -1.000000 0.000000
vn 0.295949 -0.955204 0.000000
vn 0.884696 -0.466168 0.000000
vn -0.196262 -0.980551 0.000000
vn 0.000000 -1.000000 0.000000
vn 0.295960 -0.955200 0.000000
vn 0.790716 -0.612183 0.000000
vn 1.000000 0.000000 0.000000
vn 1.000000 0.000000 0.000000
vn 1.000000 0.000000 0.000000
vn 1.000000 0.000000 0.000000
vn -0.840762 -0.535798 -0.077723
vn -0.958939 -0.274039 -0.073065
vn -0.884697 -0.466166 0.000000
vn -0.884696 -0.466168 0.000000
vn -0.884697 -0.466166 0.000000
vn -1.000000 0.000000 0.000000
vn -1.000000 0.000000 0.000000
vn -1.000000 0.000000 0.000000
vn -1.000000 0.000000 0.000000
vn -1.000000 0.000000 0.000000
vn -0.974467 0.216829 -0.058311
vn -0.870169 0.492046 -0.026386
vn -0.884698 0.466165 0.000000
vn -0.884696 0.466168 0.000000
vn -0.884697 0.466168 0.000000
vn -0.902548 0.000000 0.430588
vn -0.902545 0.000000 0.430596
vn -0.902545 0.000000 0.430596
vn -0.902541 0.000000 0.430604
vn 1.000000 0.000000 0.000000
vn 1.000000 0.000000 0.000000
vn 1.000000 0.000000 0.000000
vn 1.000000 0.000000 0.000000
vn 0.000000 0.000000 -1.000000
vn 0.000000 0.000000 -1.000000
f 6/6/1 10/14/2 13/18/3
f 5/5/4 14/19/5 10/14/2
f 3/3/6 9/13/7 14/19/5
f 4/4/8 13/18/3 9/13/7
f 13/18/3 10/14/2 16/21/9
f 16/21/9 10/14/2 11/16/10
f 13/18/3 16/21/9 9/13/7
f 16/21/9 18/24/11 9/13/7
f 11/16/10 10/14/2 19/25/12
f 18/24/11 20/26/13 9/13/7
f 9/13/7 20/26/13 14/19/5
f 20/26/13 15/20/14 14/19/5
f 15/20/14 17/23/15 14/19/5
f 17/23/15 12/15/16 14/19/5
f 10/14/2 14/19/5 19/25/12
f 19/25/12 14/19/5 12/15/16
f 5/12/17 7/11/18 14/22/5
f 7/11/18 1/1/19 14/22/5
f 1/1/19 3/3/6 14/22/5
f 1/1/20 2/2/21 3/3/22
f 3/3/22 2/2/21 9/13/7
f 2/2/21 4/4/8 9/13/7
f 8/8/23 7/7/24 6/6/25
f 6/6/25 7/7/24 10/14/26
f 7/7/24 5/5/27 10/14/26
f 8/9/28 6/10/29 2/2/30
f 6/10/29 13/17/31 2/2/30
f 13/17/31 4/4/32 2/2/30
f 21/28/33 11/27/34 22/29/35
f 11/27/36 19/30/37 22/29/38
f 22/29/38 19/30/37 23/31/39
f 19/30/40 12/32/41 23/31/42
f 23/31/42 12/32/41 24/33/43
f 12/32/44 17/34/45 24/33/46
f 24/33/46 17/34/45 25/35/47
f 17/34/48 15/36/49 25/35/50
f 25/35/50 15/36/49 26/37/51
f 15/36/52 20/38/53 26/37/54
f 26/37/54 20/38/53 27/39/55
f 20/38/56 18/40/57 27/39/58
f 27/39/58 18/40/57 28/41/59
f 18/40/60 16/42/61 28/41/62
f 28/41/62 16/42/61 29/43/63
f 29/43/63 16/42/61 30/44/64
f 16/42/65 11/45/34 30/44/66
f 30/44/66 11/45/34 21/46/33
f 31/47/67 35/48/68 34/49/69
f 31/47/67 32/50/70 35/48/68
f 35/48/68 32/50/70 36/51/71
f 32/50/70 33/52/72 36/51/71
f 36/51/71 33/52/72 37/53/73
f 33/52/72 38/54/74 37/53/73
f 34/49/69 35/48/68 39/55/75
f 39/55/75 35/48/68 40/56/76
f 35/48/68 36/51/71 40/56/76
f 40/56/76 36/51/71 41/57/77
f 36/51/71 37/53/73 41/57/77
f 41/57/77 37/53/73 42/58/78
f 37/53/73 38/54/74 42/58/78
f 42/58/78 38/54/74 43/59/79
f 39/55/75 40/56/76 44/60/80
f 44/60/80 40/56/76 45/61/81
f 40/56/76 41/57/77 45/61/81
f 45/61/81 41/57/77 46/62/82
f 41/57/77 42/58/78 46/62/82
f 46/62/82 42/58/78 47/63/83
f 42/58/78 43/59/79 47/63/83
f 47/63/83 43/59/79 48/64/84
f 44/60/80 45/61/81 49/65/85
f 45/61/81 46/62/82 49/65/85
f 49/65/85 46/62/82 50/66/86
f 46/62/82 47/63/83 50/66/86
f 50/66/86 47/63/83 51/67/87
f 47/63/83 48/64/84 51/67/87
f 49/65/88 50/66/89 52/68/90
f 52/68/90 50/66/89 53/69/91
f 50/66/89 51/67/92 53/69/91
f 53/69/91 51/67/92 54/70/93
f 54/70/93 51/67/92 97/71/94
f 97/71/94 51/67/92 48/64/95
f 52/68/90 53/69/91 55/72/96
f 55/72/96 53/69/91 56/73/97
f 53/69/91 54/70/93 56/73/97
f 56/73/97 54/70/93 57/74/98
f 57/74/98 54/70/93 96/75/99
f 96/75/99 54/70/93 97/71/94
f 55/72/96 56/73/97 58/76/100
f 58/76/100 56/73/97 59/77/101
f 56/73/97 57/74/98 59/77/101
f 59/77/101 57/74/98 60/78/102
f 60/78/102 57/74/98 95/79/103
f 95/79/103 57/74/98 96/75/99
f 58/76/100 59/77/101 61/80/104
f 108/81/105 107/82/106 109/83/107
f 59/77/101 60/78/102 62/84/108
f 62/84/108 60/78/102 63/85/109
f 60/78/102 95/79/103 63/85/109
f 63/85/109 95/79/103 68/86/110
f 61/80/111 65/87/112 64/88/113
f 62/84/114 66/89/115 61/80/111
f 61/80/111 66/89/115 65/87/112
f 62/84/114 63/85/116 66/89/115
f 66/89/115 63/85/116 67/90/117
f 63/85/116 68/91/118 67/90/117
f 65/87/112 70/92/119 64/88/113
f 64/88/113 70/92/119 69/93/120
f 66/89/115 71/94/121 65/87/112
f 65/87/112 71/94/121 70/92/119
f 66/89/115 67/90/117 71/94/121
f 71/94/121 67/90/117 72/95/122
f 67/90/117 68/91/118 72/95/122
f 69/93/120 70/92/119 73/96/123
f 73/96/123 70/92/119 74/97/124
f 70/92/119 71/94/121 74/97/124
f 74/97/124 71/94/121 75/98/125
f 72/95/122 76/99/126 71/94/121
f 71/94/121 76/99/126 75/98/125
f 72/95/122 68/100/118 76/99/126
f 73/96/123 74/97/124 77/101/127
f 74/97/124 75/98/125 77/101/127
f 77/101/127 75/98/125 78/102/128
f 76/99/126 79/103/129 75/98/125
f 75/98/125 79/103/129 78/102/128
f 76/99/126 68/100/118 79/103/129
f 77/101/130 78/102/131 80/104/132
f 80/104/132 78/102/131 81/105/133
f 78/102/131 79/103/134 81/105/133
f 81/105/133 79/103/134 82/106/135
f 82/106/135 79/103/134 89/107/136
f 89/107/136 79/103/134 68/108/110
f 80/104/132 81/105/133 83/109/137
f 83/109/137 81/105/133 84/110/138
f 81/105/133 82/106/135 84/110/138
f 84/110/138 82/106/135 85/111/139
f 85/111/139 82/106/135 90/112/140
f 90/112/140 82/106/135 89/107/136
f 83/109/137 84/110/138 86/113/141
f 86/113/141 84/110/138 87/114/142
f 84/110/138 85/111/139 87/114/142
f 87/114/142 85/111/139 88/115/143
f 88/115/143 85/111/139 91/116/144
f 91/116/144 85/111/139 90/112/140
f 86/113/141 87/114/142 31/117/145
f 31/117/145 87/114/142 32/118/146
f 87/114/142 88/115/143 32/118/146
f 32/118/146 88/115/143 33/119/147
f 33/119/147 88/115/143 38/54/148
f 38/54/148 88/115/143 91/116/144
f 89/107/136 68/108/110 92/120/149
f 90/112/140 89/107/136 93/121/150
f 93/121/150 89/107/136 92/120/149
f 91/116/144 90/112/140 94/122/151
f 94/122/151 90/112/140 93/121/150
f 38/54/148 91/116/144 43/59/152
f 43/59/152 91/116/144 94/122/151
f 92/120/149 68/86/110 95/79/103
f 93/121/150 92/120/149 96/75/99
f 96/75/99 92/120/149 95/79/103
f 94/122/151 93/121/150 97/71/94
f 97/71/94 93/121/150 96/75/99
f 43/59/152 94/122/151 48/64/95
f 48/64/95 94/122/151 97/71/94
f 80/104/132 98/123/153 77/101/130
f 77/101/130 98/123/153 73/124/154
f 83/109/137 99/125/155 80/104/132
f 80/104/132 99/125/155 98/123/153
f 86/113/141 100/126/156 83/109/137
f 83/109/137 100/126/156 99/125/155
f 31/117/145 34/49/157 86/113/141
f 86/113/141 34/49/157 100/126/156
f 98/123/153 101/127/158 73/124/154
f 73/124/154 101/127/158 69/128/159
f 98/123/153 99/125/155 101/127/158
f 101/127/158 99/125/155 102/129/160
f 99/125/155 100/126/156 102/129/160
f 102/129/160 100/126/156 103/130/161
f 100/126/156 34/49/157 103/130/161
f 103/130/161 34/49/157 39/55/162
f 69/128/159 101/127/158 64/131/163
f 64/131/163 101/127/158 104/132/164
f 101/127/158 102/129/160 104/132/164
f 104/132/164 102/129/160 105/133/165
f 102/129/160 103/130/161 105/133/165
f 105/133/165 103/130/161 106/134/166
f 103/130/161 39/55/162 106/134/166
f 106/134/166 39/55/162 44/60/167
f 64/131/163 104/132/164 61/80/104
f 61/80/104 104/132/164 58/76/100
f 58/76/100 104/132/164 55/72/96
f 55/72/96 104/132/164 105/133/165
f 55/72/96 105/133/165 52/68/90
f 52/68/90 105/133/165 106/134/166
f 52/68/90 106/134/166 49/65/88
f 49/65/88 106/134/166 44/60/167
f 61/80/168 59/77/169 108/81/170
f 108/81/170 59/77/169 107/82/171
f 59/77/172 62/84/173 107/82/174
f 107/82/174 62/84/173 109/83/175
f 62/84/114 61/80/111 109/83/176
f 109/83/176 61/80/111 108/81/177
