# 3ds Max Wavefront OBJ Exporter v0.97b - (c)2007 guruware
# File Created: 07.08.2012 22:47:11

mtllib ziiiiid.mtl

#
# object Box001
#

v  -7.9235 35.7122 7.7828
v  -7.9235 35.7122 3.1486
v  72.9088 35.7122 3.1486
v  72.9088 35.7122 7.7828
v  -7.9235 76.4389 7.7828
v  72.9088 76.4389 7.7828
v  72.9088 76.4389 3.1486
v  -7.9235 76.4389 3.1486
# 8 vertices

vn 0.0000 -1.0000 -0.0000
vn 0.0000 1.0000 -0.0000
vn 0.0000 0.0000 1.0000
vn 1.0000 0.0000 -0.0000
vn 0.0000 0.0000 -1.0000
vn -1.0000 0.0000 -0.0000
# 6 vertex normals

vt 2.4554 -0.0336 0.0000
vt 2.4554 0.2258 0.0000
vt -1.4554 0.2258 0.0000
vt -1.4554 -0.0336 0.0000
vt -1.4554 -0.8877 0.0000
vt 2.4554 -0.8877 0.0000
vt 2.4554 1.3915 0.0000
vt -1.4554 1.3915 0.0000
vt 0.3142 2.7615 0.0000
vt 0.6858 2.7615 0.0000
vt 0.6858 6.0268 0.0000
vt 0.3142 6.0268 0.0000
# 12 texture coords

g Box001
usemtl _surfacedefault
s 2
f 1/1/1 2/2/1 3/3/1 4/4/1 
s 4
f 5/4/2 6/1/2 7/2/2 8/3/2 
s 8
f 1/5/3 4/6/3 6/7/3 5/8/3 
s 16
f 4/9/4 3/10/4 7/11/4 6/12/4 
s 32
f 3/5/5 2/6/5 8/7/5 7/8/5 
s 64
f 2/9/6 1/10/6 5/11/6 8/12/6 
# 6 polygons

